<?xml version="1.0" standalone="no"?>
<!DOCTYPE svg PUBLIC "-//W3C//DTD SVG 20010904//EN"
 "http://www.w3.org/TR/2001/REC-SVG-20010904/DTD/svg10.dtd">
<svg version="1.0" xmlns="http://www.w3.org/2000/svg"
 width="512.000000pt" height="512.000000pt" viewBox="0 0 512.000000 512.000000"
 preserveAspectRatio="xMidYMid meet">
<metadata>
Created by potrace 1.14, written by Peter Selinger 2001-2017
</metadata>
<g transform="translate(0.000000,512.000000) scale(0.100000,-0.100000)"
fill="#000000" stroke="none">
<path d="M1 4895 c0 -135 5 -225 11 -225 5 0 6 -5 2 -12 -5 -7 -3 -8 5 -4 7 5
10 15 7 23 -3 8 -2 11 3 8 5 -3 12 -1 16 5 3 5 11 10 16 10 6 0 4 -7 -4 -15
-9 -8 -13 -24 -10 -35 7 -25 15 -27 11 -2 -1 9 7 27 20 40 26 26 41 30 21 5
-11 -13 -11 -17 -1 -21 10 -3 10 -7 0 -20 -12 -15 -11 -16 4 -3 10 7 15 17 12
22 -3 5 2 9 12 9 12 0 14 3 6 13 -8 9 -7 13 6 13 10 0 18 -8 18 -17 0 -10 -5
-17 -11 -16 -5 1 -9 -4 -7 -10 1 -7 -3 -13 -10 -13 -6 0 -8 -3 -5 -6 4 -4 14
-1 23 7 20 16 44 21 44 8 0 -6 5 -7 11 -3 8 5 8 9 -1 14 -8 5 -8 10 -2 14 13
8 23 -18 16 -41 -2 -10 1 -8 7 5 7 12 19 21 27 20 8 -2 17 3 19 10 3 6 0 12
-7 12 -6 0 -9 -4 -6 -8 2 -4 -3 -8 -13 -8 -10 0 -18 6 -18 12 0 7 7 10 15 6 9
-3 13 -1 9 5 -3 5 0 10 8 10 8 0 17 -7 19 -14 3 -8 10 -12 15 -8 5 3 13 0 17
-6 4 -7 3 -9 -2 -6 -13 8 -40 -10 -31 -20 5 -4 11 -3 15 2 11 15 56 19 47 4
-6 -8 -4 -10 4 -5 7 5 10 15 7 23 -3 8 -2 11 3 8 5 -3 12 -1 16 5 3 5 11 10
16 10 6 0 4 -7 -4 -15 -13 -13 -13 -55 0 -55 3 0 3 9 0 19 -3 13 5 26 27 42
23 17 27 18 16 4 -12 -14 -12 -19 -2 -23 10 -3 10 -7 0 -20 -12 -15 -11 -15 4
-4 9 8 14 20 11 28 -4 10 0 12 13 7 16 -6 17 -4 7 8 -10 12 -9 15 5 15 10 0
18 -8 18 -17 0 -10 -5 -17 -11 -16 -5 1 -9 -4 -7 -10 1 -7 -3 -13 -10 -13 -6
0 -8 -3 -5 -6 4 -4 14 -1 23 7 20 16 44 21 44 8 0 -6 5 -7 11 -3 8 5 8 9 -1
14 -8 5 -8 10 -2 14 13 8 23 -18 16 -41 -2 -10 1 -8 7 5 7 12 19 21 27 20 8
-2 17 3 19 10 3 6 0 12 -7 12 -6 0 -9 -4 -6 -8 2 -4 -3 -8 -13 -8 -10 0 -18 6
-18 12 0 7 7 10 15 6 10 -3 13 -1 8 7 -9 14 15 11 26 -3 11 -16 40 -16 34 0
-4 10 -2 12 6 8 10 -6 41 -13 75 -16 7 -1 10 -5 7 -10 -3 -4 -14 -3 -25 2 -13
7 -19 7 -19 0 0 -5 7 -10 16 -10 9 0 12 -5 8 -12 -5 -9 -2 -8 10 1 12 10 20
11 28 3 8 -8 17 -8 30 -1 16 9 20 7 25 -10 3 -12 10 -21 15 -21 5 0 7 4 3 9
-3 5 -1 12 4 16 6 3 8 12 5 20 -4 8 -11 12 -16 9 -6 -4 -5 -10 3 -16 12 -8 12
-9 0 -6 -8 2 -15 11 -17 19 -1 12 6 15 35 12 20 -2 44 -4 54 -4 9 0 17 -4 17
-9 0 -9 -32 -6 -50 5 -6 3 -10 1 -10 -4 0 -6 7 -11 16 -11 9 0 12 -5 8 -12 -6
-10 -5 -10 8 -1 15 13 28 8 28 -9 0 -5 -4 -7 -8 -4 -5 3 -9 -2 -9 -11 0 -13 4
-12 17 5 10 12 21 18 25 14 5 -4 5 -1 1 6 -4 6 -2 12 3 12 6 0 11 -4 11 -9 0
-5 11 -8 24 -7 13 0 23 3 21 6 -2 3 3 16 11 30 l14 25 -6 -26 c-6 -26 -5 -27
45 -24 28 1 54 -2 57 -6 3 -5 10 -9 15 -9 6 0 7 5 4 10 -3 6 1 10 10 10 10 0
13 -5 9 -12 -6 -10 -5 -10 8 -1 15 13 28 8 28 -9 0 -5 -5 -6 -12 -2 -7 4 -8 3
-4 -5 9 -15 29 -3 22 14 -2 7 10 23 27 36 24 17 28 18 17 4 -12 -14 -12 -19
-2 -23 10 -3 10 -7 0 -20 -12 -15 -11 -15 4 -4 9 8 14 20 11 28 -3 9 0 12 9 9
15 -6 21 -35 7 -35 -4 0 -10 -8 -13 -17 -5 -13 0 -11 19 7 22 21 28 22 35 10
7 -11 10 -12 10 -2 0 7 5 10 12 6 7 -4 8 -3 4 4 -4 7 -2 12 3 12 6 0 11 -5 11
-10 0 -13 32 -9 42 5 8 12 1 25 -15 25 -8 0 -8 -3 1 -9 11 -7 10 -9 -3 -14
-10 -5 -14 -3 -9 5 4 7 3 8 -4 4 -7 -4 -12 -2 -12 5 0 8 -4 8 -15 -1 -10 -9
-15 -9 -15 -1 0 10 14 15 33 12 4 -1 17 4 29 10 15 8 18 8 14 0 -9 -14 0 -14
26 0 11 6 18 7 15 1 -4 -5 5 -14 20 -21 14 -6 23 -14 20 -18 -4 -3 -13 0 -22
7 -8 7 -15 9 -15 4 0 -5 -4 -2 -10 6 -5 8 -13 11 -17 6 -4 -5 -2 -11 5 -13 6
-3 10 -8 8 -12 -3 -4 9 -6 27 -5 18 1 32 3 32 4 0 8 102 5 112 -3 17 -12 44
-1 38 16 -3 7 -15 13 -25 14 -11 1 -18 -2 -16 -6 3 -4 -1 -8 -9 -8 -8 0 -13 5
-12 10 1 5 -4 12 -11 14 -7 3 -11 -1 -10 -7 2 -7 -3 -14 -10 -16 -7 -1 -8 0
-2 3 5 2 7 9 4 14 -3 6 -11 5 -20 -2 -10 -8 -14 -8 -14 0 0 6 3 11 8 12 4 0
16 2 26 4 11 2 25 1 30 -3 6 -3 31 -7 56 -9 66 -5 70 -5 64 -15 -3 -4 -14 -3
-25 2 -13 7 -19 7 -19 0 0 -5 7 -10 16 -10 9 0 12 -5 8 -12 -5 -9 -2 -8 10 1
12 10 20 11 28 3 8 -8 17 -8 30 -1 16 9 20 7 25 -10 3 -12 10 -21 15 -21 5 0
7 4 3 9 -3 5 -1 12 5 16 6 4 7 11 4 17 -9 15 17 28 36 18 9 -5 22 -5 31 1 21
13 31 11 17 -5 -13 -13 -37 -14 -58 -1 -6 3 -10 -1 -10 -9 0 -10 6 -13 17 -9
12 5 14 3 8 -8 -7 -12 -6 -12 7 -1 14 11 18 10 28 -5 11 -17 11 -17 6 0 -4 13
0 20 14 24 11 3 18 8 16 12 -2 3 7 7 20 7 25 2 32 -10 12 -22 -7 -4 -8 -3 -4
5 6 8 1 8 -18 -1 -14 -6 -26 -16 -26 -22 0 -6 5 -5 12 2 21 21 32 13 12 -10
l-19 -23 26 23 c26 22 45 30 35 13 -4 -5 12 -1 33 10 22 10 42 24 45 31 3 7 3
3 0 -9 -4 -17 -1 -23 11 -23 9 0 13 4 10 10 -4 6 1 7 12 3 15 -6 16 -4 6 8
-10 12 -9 15 5 15 10 0 18 -8 18 -17 0 -10 -4 -16 -7 -13 -4 2 -11 -1 -15 -8
-4 -7 -4 -10 1 -6 5 5 14 -1 22 -12 8 -11 20 -20 26 -19 9 0 8 2 -1 6 -6 2 -9
10 -6 15 4 7 2 8 -4 4 -7 -4 -12 -2 -12 3 0 6 4 11 10 11 5 0 7 7 4 15 -4 8
-1 15 6 15 6 0 8 -4 5 -10 -9 -14 17 -12 37 4 10 7 14 17 10 21 -4 5 -1 5 7 0
11 -6 9 -12 -10 -26 -17 -13 -20 -19 -8 -19 8 0 21 6 28 13 11 10 13 9 8 -6
-4 -10 -3 -16 2 -12 5 3 12 -1 14 -7 4 -9 8 -9 14 -3 11 14 57 20 49 6 -8 -12
53 16 75 36 13 11 16 11 16 -2 0 -8 -2 -13 -5 -10 -4 4 -32 -20 -32 -28 0 -3
16 3 35 11 27 12 32 19 23 29 -8 10 -7 12 5 7 8 -3 18 -12 21 -20 3 -8 2 -12
-3 -9 -5 3 -13 0 -17 -7 -4 -7 -4 -10 1 -6 5 5 14 -1 22 -12 8 -11 20 -20 26
-19 9 0 8 2 -1 6 -6 2 -9 10 -6 15 4 7 2 8 -4 4 -7 -4 -12 -2 -12 3 0 6 4 11
10 11 5 0 7 7 4 15 -4 8 -1 15 6 15 6 0 8 -5 4 -12 -5 -8 -2 -9 9 -5 10 3 17
2 17 -3 0 -6 7 -10 16 -10 14 0 15 2 3 17 -13 15 -12 15 8 3 12 -8 19 -18 16
-24 -3 -5 -1 -6 5 -2 7 4 12 14 12 22 0 8 -4 13 -9 10 -5 -3 -15 2 -22 12 -12
15 -12 16 1 6 8 -6 23 -10 32 -9 10 2 15 -2 12 -9 -3 -7 2 -13 11 -13 9 0 14
6 11 14 -4 9 -1 11 6 7 10 -6 41 -13 75 -16 7 -1 10 -5 7 -10 -3 -4 -14 -3
-25 2 -13 7 -19 7 -19 0 0 -5 7 -10 16 -10 9 0 12 -5 8 -12 -5 -9 -2 -8 10 1
12 10 20 11 28 3 8 -8 17 -8 30 -1 16 9 20 7 25 -10 5 -20 6 -20 18 -4 14 19
9 46 -7 37 -6 -4 -5 -10 3 -16 12 -8 12 -9 0 -6 -8 2 -15 11 -17 19 -1 12 6
15 30 13 44 -4 64 -9 72 -17 8 -8 -32 -1 -46 8 -6 3 -10 1 -10 -4 0 -6 7 -11
16 -11 9 0 12 -5 8 -12 -5 -10 -4 -10 7 0 11 10 17 8 32 -10 10 -13 16 -17 12
-10 -12 24 -15 62 -5 62 6 0 8 -4 5 -10 -3 -5 1 -10 9 -10 8 0 18 5 21 10 3 6
11 10 18 10 6 0 2 -7 -9 -15 -13 -10 -15 -14 -5 -15 11 0 9 -5 -5 -22 -19 -23
-19 -23 2 -5 11 9 24 14 27 11 4 -4 12 -3 19 3 15 11 95 10 122 -2 10 -4 21
-4 25 1 9 13 39 16 46 4 4 -7 12 -7 25 0 15 8 22 6 30 -7 11 -17 11 -17 6 0
-3 9 -1 17 4 17 6 0 10 -6 10 -12 0 -10 3 -9 9 1 7 11 9 11 14 0 4 -9 8 -10
14 -4 14 17 35 16 49 -2 13 -17 14 -17 7 2 -6 18 -5 18 10 6 9 -7 17 -9 17 -4
0 6 10 9 23 8 12 -1 22 -3 22 -4 0 -7 41 -9 50 -2 12 9 94 7 117 -3 22 -10 39
0 32 19 -4 8 -10 12 -15 9 -17 -10 -49 -13 -49 -4 0 9 7 10 68 10 49 0 62 -2
56 -12 -3 -4 -14 -3 -25 2 -13 7 -19 7 -19 0 0 -5 7 -10 16 -10 9 0 12 -5 8
-12 -5 -9 -2 -8 10 1 12 10 20 11 28 3 8 -8 17 -8 30 -1 16 9 20 7 25 -10 3
-12 10 -21 15 -21 5 0 7 4 3 9 -3 5 -1 12 5 16 6 4 7 11 4 17 -9 15 17 28 36
18 9 -5 22 -5 31 1 21 13 31 11 17 -5 -13 -13 -37 -14 -58 -1 -6 3 -10 1 -10
-4 0 -6 7 -11 16 -11 9 0 12 -5 8 -12 -6 -10 -4 -10 8 0 14 11 18 10 28 -5 11
-17 11 -17 6 0 -4 13 0 20 14 24 11 3 18 8 16 12 -2 3 7 7 20 7 25 2 32 -10
12 -22 -7 -4 -8 -3 -4 4 5 8 1 10 -9 5 -14 -5 -14 -8 -3 -15 9 -6 6 -7 -9 -3
-13 3 -23 3 -23 -2 0 -12 38 -14 45 -2 4 5 11 9 16 9 6 0 8 -4 5 -9 -4 -5 12
-1 33 10 22 10 42 24 45 31 3 7 3 3 0 -9 -4 -17 -1 -23 11 -23 9 0 13 4 10 10
-4 6 1 7 12 3 16 -6 16 -5 4 10 -12 15 -12 17 2 11 8 -3 18 -12 21 -20 3 -8 2
-12 -3 -9 -5 3 -13 0 -17 -7 -4 -7 -4 -10 1 -6 5 5 14 -1 22 -12 8 -11 20 -20
26 -19 9 0 8 2 -1 6 -6 2 -9 10 -6 15 4 7 2 8 -4 4 -7 -4 -12 -2 -12 3 0 6 4
11 10 11 5 0 7 7 4 15 -4 8 -1 15 6 15 6 0 8 -4 5 -10 -9 -14 17 -12 37 4 10
7 14 17 10 21 -4 5 -1 5 7 0 11 -6 9 -12 -10 -26 -17 -13 -20 -19 -9 -19 9 0
22 6 29 13 11 10 13 9 8 -6 -4 -10 -3 -16 2 -12 5 3 12 -1 14 -7 4 -9 8 -9 14
-3 11 14 57 20 49 6 -8 -12 51 16 79 38 13 10 16 10 8 1 -17 -19 -16 -30 3
-30 8 0 12 4 9 10 -4 6 1 7 12 3 16 -6 16 -5 4 10 -12 15 -12 17 2 11 8 -3 18
-12 21 -20 3 -8 2 -12 -3 -9 -5 3 -13 0 -17 -7 -4 -7 -4 -10 1 -6 5 5 14 -1
22 -12 8 -11 20 -20 26 -19 9 0 8 2 -1 6 -6 2 -9 10 -6 15 4 7 2 8 -4 4 -7 -4
-12 -2 -12 3 0 6 4 11 10 11 5 0 7 7 4 15 -4 8 -1 15 6 15 6 0 8 -4 5 -10 -9
-14 17 -12 37 4 10 7 14 17 10 21 -4 5 -1 5 7 0 11 -6 9 -12 -10 -26 -17 -13
-20 -19 -9 -19 9 0 22 6 29 13 11 10 13 9 8 -6 -4 -10 -3 -16 2 -12 5 3 12 -1
14 -7 4 -9 8 -9 14 -3 4 6 17 11 28 13 20 3 20 2 1 -13 -11 -8 -14 -15 -7 -15
7 0 9 -5 5 -12 -4 -7 -3 -8 5 -4 6 4 9 11 6 16 -3 5 -1 11 4 15 6 3 8 12 5 20
-4 8 -11 12 -18 8 -23 -15 -44 -12 -49 6 -2 10 1 18 8 18 7 0 11 -6 9 -12 -3
-6 2 -12 11 -12 9 0 14 6 11 14 -4 9 -1 11 6 7 10 -6 41 -13 75 -16 7 -1 10
-5 7 -10 -3 -4 -14 -3 -25 2 -15 8 -19 7 -19 -4 0 -10 6 -13 17 -9 12 5 14 3
8 -8 -8 -12 -6 -12 9 0 12 10 20 11 28 3 8 -8 17 -8 30 -1 16 9 20 7 25 -10 3
-12 10 -21 15 -21 5 0 7 4 3 9 -3 5 -1 12 4 16 6 3 8 12 5 20 -4 8 -11 12 -16
9 -6 -4 -5 -10 3 -16 12 -8 12 -9 0 -6 -8 2 -15 11 -17 19 -1 12 6 15 35 12
20 -2 44 -4 54 -4 9 0 17 -4 17 -9 0 -9 -32 -6 -50 5 -6 3 -10 -1 -10 -9 0
-10 6 -13 17 -9 12 5 14 3 8 -8 -7 -11 -6 -12 7 -2 15 13 28 8 28 -9 0 -5 -4
-7 -8 -4 -5 3 -9 -2 -9 -11 0 -13 4 -12 17 5 10 12 21 18 25 14 5 -4 5 -1 1 6
-5 8 0 12 16 12 18 0 20 -2 8 -10 -11 -7 -7 -8 15 -6 17 2 30 5 30 6 0 7 107
5 111 -2 3 -4 11 -8 17 -8 7 0 6 4 -3 10 -12 8 -10 10 8 10 13 0 21 -4 17 -9
-7 -12 53 17 80 38 13 10 16 10 8 1 -17 -19 -16 -30 3 -30 8 0 12 4 9 10 -3 6
1 7 9 4 9 -3 13 -11 9 -17 -3 -5 -1 -7 5 -3 5 3 12 0 15 -6 2 -7 5 94 6 225
l2 237 -2561 0 -2561 0 2 -225z m1239 -11 c0 -8 -19 -13 -24 -6 -3 5 1 9 9 9
8 0 15 -2 15 -3z m-184 -166 c12 -14 13 -18 3 -10 -9 6 -18 10 -21 7 -2 -3 -5
2 -5 10 0 19 0 19 23 -7z m-855 -5 c12 -16 12 -17 -2 -6 -9 7 -20 9 -24 5 -5
-4 -5 -1 -1 6 9 16 11 15 27 -5z m320 0 c12 -16 12 -17 -2 -6 -9 7 -20 9 -24
5 -5 -4 -5 -1 -1 6 9 16 11 15 27 -5z m580 -6 c-10 -9 -11 -8 -5 6 3 10 9 15
12 12 3 -3 0 -11 -7 -18z m1340 6 c12 -16 12 -17 -2 -6 -9 7 -20 9 -24 5 -5
-4 -5 -1 -1 6 9 16 11 15 27 -5z m540 0 c12 -16 12 -17 -2 -6 -9 7 -20 9 -24
5 -5 -4 -5 -1 -1 6 9 16 11 15 27 -5z m40 -6 c-10 -9 -11 -8 -5 6 3 10 9 15
12 12 3 -3 0 -11 -7 -18z m440 6 c12 -16 12 -17 -2 -6 -9 7 -20 9 -24 5 -5 -4
-5 -1 -1 6 9 16 11 15 27 -5z m40 -6 c-10 -9 -11 -8 -5 6 3 10 9 15 12 12 3
-3 0 -11 -7 -18z m540 6 c12 -16 12 -17 -2 -6 -9 7 -20 9 -24 5 -5 -4 -5 -1
-1 6 9 16 11 15 27 -5z m320 0 c12 -16 12 -17 -2 -6 -9 7 -20 9 -24 5 -5 -4
-5 -1 -1 6 9 16 11 15 27 -5z m580 -6 c-10 -9 -11 -8 -5 6 3 10 9 15 12 12 3
-3 0 -11 -7 -18z m-4611 -18 c0 -14 -17 -10 -23 5 -4 10 -1 13 9 9 7 -3 14 -9
14 -14z m428 10 c-10 -5 -18 -15 -18 -21 0 -7 5 -6 15 2 9 7 15 8 15 2 0 -18
-30 -23 -37 -6 -6 16 12 34 32 34 6 -1 2 -5 -7 -11z m209 -3 c-10 -8 -17 -16
-15 -19 2 -3 0 -9 -4 -13 -4 -4 -10 1 -14 10 -6 16 -8 16 -26 -1 -17 -16 -18
-16 -12 0 3 9 9 17 13 18 3 0 16 2 28 3 13 2 26 6 30 9 3 4 9 7 12 7 3 0 -2
-7 -12 -14z m305 -5 c-3 -8 -1 -12 5 -8 6 4 13 1 16 -6 3 -7 -3 -13 -14 -13
-10 0 -16 2 -14 5 3 2 -2 12 -10 21 -13 14 -12 16 4 16 12 0 17 -5 13 -15z
m178 9 c0 -5 -2 -10 -4 -10 -3 0 -8 5 -11 10 -3 6 -1 10 4 10 6 0 11 -4 11
-10z m21 -17 c-12 -20 -14 -14 -5 12 4 9 9 14 11 11 3 -2 0 -13 -6 -23z m247
16 c-10 -5 -18 -15 -18 -21 0 -7 5 -6 15 2 9 7 15 8 15 2 0 -18 -30 -23 -37
-6 -6 16 12 34 32 34 6 -1 2 -5 -7 -11z m486 -4 c-3 -6 2 -12 11 -12 9 0 14 6
11 13 -3 8 0 11 10 7 15 -5 20 -22 7 -24 -5 0 -18 -2 -29 -5 -15 -2 -23 2 -27
15 -2 10 1 18 8 18 7 0 11 -6 9 -12z m474 4 c-10 -5 -18 -15 -18 -21 0 -7 5
-6 15 2 9 7 15 8 15 2 0 -18 -30 -23 -37 -6 -6 16 12 34 32 34 6 -1 2 -5 -7
-11z m232 -18 c-12 -23 -25 -27 -36 -9 -5 7 -2 9 9 5 11 -4 18 1 22 14 4 11 9
18 12 16 2 -3 0 -15 -7 -26z m145 19 c-3 -5 -1 -10 4 -10 6 0 11 -5 11 -12 0
-6 -3 -8 -7 -5 -3 4 -12 2 -20 -4 -9 -8 -17 -8 -26 0 -8 6 -17 8 -20 4 -4 -3
-7 -1 -7 6 0 7 6 11 14 8 8 -3 22 1 33 8 22 17 26 18 18 5z m39 -2 c-3 -4 -3
-8 0 -8 2 0 13 -3 23 -7 16 -6 17 -5 3 12 -14 17 -14 17 8 4 12 -8 22 -18 22
-23 0 -5 -3 -6 -6 -3 -4 3 -15 2 -24 -3 -14 -7 -21 -4 -33 14 -12 18 -13 23
-2 23 8 0 12 -4 9 -9z m200 0 c-3 -4 0 -8 5 -8 6 0 11 -4 11 -8 0 -5 -13 -8
-30 -8 -16 0 -30 4 -30 9 0 5 -7 4 -15 -3 -10 -9 -15 -9 -15 -1 0 6 6 12 13
12 17 2 20 1 42 -7 17 -7 18 -5 8 7 -10 13 -10 16 2 16 8 0 12 -4 9 -9z m46
-15 c0 4 9 3 19 -3 16 -8 21 -6 26 11 4 11 9 18 12 16 2 -3 0 -15 -6 -26 -15
-27 -50 -22 -69 10 -13 23 -13 23 2 5 9 -11 16 -17 16 -13z m298 16 c-10 -5
-18 -15 -18 -21 0 -7 5 -6 15 2 9 7 15 8 15 2 0 -18 -30 -23 -37 -6 -6 16 12
34 32 34 6 -1 2 -5 -7 -11z m486 -4 c-3 -6 2 -12 11 -12 9 0 14 6 11 13 -3 8
0 11 10 7 15 -5 20 -22 7 -24 -5 0 -18 -2 -29 -5 -15 -2 -23 2 -27 15 -2 10 1
18 8 18 7 0 11 -6 9 -12z m474 4 c-10 -5 -18 -15 -18 -21 0 -7 5 -6 15 2 9 7
15 8 15 2 0 -18 -30 -23 -37 -6 -6 16 12 34 32 34 6 -1 2 -5 -7 -11z m203 -8
c-10 -7 -10 -9 3 -14 8 -3 17 -1 20 6 3 9 5 9 5 0 2 -21 -18 -25 -41 -9 -20
14 -24 14 -40 -1 -18 -16 -18 -16 -12 0 6 16 16 21 41 18 6 -1 15 3 18 9 4 6
10 9 13 5 4 -3 1 -10 -7 -14z m79 16 c0 -2 -9 -12 -20 -22 -24 -21 -27 -14 -4
9 15 15 24 20 24 13z m230 -19 c0 -6 -6 -5 -15 2 -8 7 -15 14 -15 16 0 2 7 1
15 -2 8 -4 15 -11 15 -16z m-4926 -3 c-4 -8 -8 -15 -10 -15 -2 0 -4 7 -4 15 0
8 4 15 10 15 5 0 7 -7 4 -15z m320 0 c-4 -8 -8 -15 -10 -15 -2 0 -4 7 -4 15 0
8 4 15 10 15 5 0 7 -7 4 -15z m526 11 c0 -2 -7 -9 -15 -16 -13 -11 -14 -10 -9
4 5 14 24 23 24 12z m97 -12 c-11 -11 -57 -13 -57 -2 0 6 6 8 13 5 8 -3 20 -1
28 3 14 9 27 4 16 -6z m51 2 c-7 -8 -15 -12 -17 -11 -5 6 10 25 20 25 5 0 4
-6 -3 -14z m577 -6 c-3 -4 0 -11 5 -13 6 -3 5 -4 -1 -3 -7 1 -13 10 -15 19 -1
9 2 15 7 11 5 -3 7 -9 4 -14z m235 16 c0 -2 -7 -7 -16 -10 -8 -3 -12 -2 -9 4
6 10 25 14 25 6z m320 0 c0 -2 -7 -7 -16 -10 -8 -3 -12 -2 -9 4 6 10 25 14 25
6z m640 0 c0 -2 -7 -9 -15 -16 -13 -11 -14 -10 -9 4 5 14 24 23 24 12z m260
-17 c0 -5 -4 -9 -10 -9 -5 0 -10 6 -10 13 0 9 -3 8 -9 -2 -5 -8 -11 -9 -15 -3
-7 12 13 21 32 14 6 -2 12 -8 12 -13z m220 17 c0 -2 -7 -9 -15 -16 -13 -11
-14 -10 -9 4 5 14 24 23 24 12z m245 -16 c-3 -4 0 -11 5 -13 6 -3 5 -4 -1 -3
-7 1 -13 10 -15 19 -1 9 2 15 7 11 5 -3 7 -9 4 -14z m235 16 c0 -2 -7 -7 -16
-10 -8 -3 -12 -2 -9 4 6 10 25 14 25 6z m320 0 c0 -2 -7 -7 -16 -10 -8 -3 -12
-2 -9 4 6 10 25 14 25 6z m739 -10 c-10 -11 -59 -14 -59 -4 0 5 6 8 13 5 8 -3
20 -1 28 3 13 9 27 5 18 -4z m61 10 c0 -2 -7 -7 -16 -10 -8 -3 -12 -2 -9 4 6
10 25 14 25 6z m-3975 -16 c-3 -5 -11 -10 -16 -10 -6 0 -7 5 -4 10 3 6 11 10
16 10 6 0 7 -4 4 -10z m1920 0 c-3 -5 -11 -10 -16 -10 -6 0 -7 5 -4 10 3 6 11
10 16 10 6 0 7 -4 4 -10z m480 0 c-3 -5 -11 -10 -16 -10 -6 0 -7 5 -4 10 3 6
11 10 16 10 6 0 7 -4 4 -10z m1440 0 c-3 -5 -11 -10 -16 -10 -6 0 -7 5 -4 10
3 6 11 10 16 10 6 0 7 -4 4 -10z m-3288 -16 c-3 -3 -12 -4 -19 -1 -8 3 -5 6 6
6 11 1 17 -2 13 -5z m1920 0 c-3 -3 -12 -4 -19 -1 -8 3 -5 6 6 6 11 1 17 -2
13 -5z"/>
<path d="M3030 4680 c-9 -6 -10 -10 -3 -10 6 0 15 5 18 10 8 12 4 12 -15 0z"/>
<path d="M636 4681 c-4 -6 -11 -9 -15 -7 -11 7 -36 -12 -28 -21 5 -4 11 -3 15
2 4 6 16 11 27 13 20 3 20 2 1 -13 -11 -8 -14 -15 -7 -15 7 0 9 -5 5 -12 -5
-7 -3 -8 5 -4 7 5 10 11 7 14 -3 3 -2 10 4 16 5 7 5 18 1 25 -6 9 -10 10 -15
2z"/>
<path d="M2556 4681 c-4 -6 -11 -9 -15 -7 -11 7 -36 -12 -28 -21 5 -4 11 -3
15 2 4 6 16 11 27 13 20 3 20 2 1 -13 -11 -8 -14 -15 -7 -15 7 0 9 -5 5 -12
-5 -7 -3 -8 5 -4 7 5 10 11 7 14 -3 3 -2 10 4 16 5 7 5 18 1 25 -6 9 -10 10
-15 2z"/>
<path d="M70 4659 c0 -5 5 -7 10 -4 6 3 10 8 10 11 0 2 -4 4 -10 4 -5 0 -10
-5 -10 -11z"/>
<path d="M390 4659 c0 -5 5 -7 10 -4 6 3 10 8 10 11 0 2 -4 4 -10 4 -5 0 -10
-5 -10 -11z"/>
<path d="M1190 4659 c0 -5 5 -7 10 -4 6 3 10 8 10 11 0 2 -4 4 -10 4 -5 0 -10
-5 -10 -11z"/>
<path d="M1990 4659 c0 -5 5 -7 10 -4 6 3 10 8 10 11 0 2 -4 4 -10 4 -5 0 -10
-5 -10 -11z"/>
<path d="M2110 4659 c0 -5 5 -7 10 -4 6 3 10 8 10 11 0 2 -4 4 -10 4 -5 0 -10
-5 -10 -11z"/>
<path d="M2430 4659 c0 -5 5 -7 10 -4 6 3 10 8 10 11 0 2 -4 4 -10 4 -5 0 -10
-5 -10 -11z"/>
<path d="M2830 4659 c0 -5 5 -7 10 -4 6 3 10 8 10 11 0 2 -4 4 -10 4 -5 0 -10
-5 -10 -11z"/>
<path d="M3910 4659 c0 -5 5 -7 10 -4 6 3 10 8 10 11 0 2 -4 4 -10 4 -5 0 -10
-5 -10 -11z"/>
<path d="M4030 4659 c0 -5 5 -7 10 -4 6 3 10 8 10 11 0 2 -4 4 -10 4 -5 0 -10
-5 -10 -11z"/>
<path d="M4230 4659 c0 -5 5 -7 10 -4 6 3 10 8 10 11 0 2 -4 4 -10 4 -5 0 -10
-5 -10 -11z"/>
<path d="M4350 4659 c0 -5 5 -7 10 -4 6 3 10 8 10 11 0 2 -4 4 -10 4 -5 0 -10
-5 -10 -11z"/>
<path d="M5030 4659 c0 -5 5 -7 10 -4 6 3 10 8 10 11 0 2 -4 4 -10 4 -5 0 -10
-5 -10 -11z"/>
<path d="M666 4651 c-3 -5 2 -15 12 -22 15 -12 16 -12 5 2 -7 9 -10 19 -6 22
3 4 4 7 0 7 -3 0 -8 -4 -11 -9z"/>
<path d="M825 4651 c-3 -5 -2 -12 3 -15 5 -3 9 1 9 9 0 17 -3 19 -12 6z"/>
<path d="M1381 4644 c0 -11 3 -14 6 -6 3 7 2 16 -1 19 -3 4 -6 -2 -5 -13z"/>
<path d="M1626 4651 c-3 -5 2 -15 12 -22 15 -12 16 -12 5 2 -7 9 -10 19 -6 22
3 4 4 7 0 7 -3 0 -8 -4 -11 -9z"/>
<path d="M1950 4646 l-25 -14 26 1 c14 1 26 8 26 15 0 6 -1 12 -1 12 -1 -1
-12 -7 -26 -14z"/>
<path d="M2009 4643 c-13 -16 -12 -17 4 -4 9 7 17 15 17 17 0 8 -8 3 -21 -13z"/>
<path d="M2135 4649 c-4 -6 -5 -12 -2 -15 2 -3 7 2 10 11 7 17 1 20 -8 4z"/>
<path d="M2270 4646 l-25 -14 26 1 c14 1 26 8 26 15 0 6 -1 12 -1 12 -1 -1
-12 -7 -26 -14z"/>
<path d="M2329 4643 c-13 -16 -12 -17 4 -4 9 7 17 15 17 17 0 8 -8 3 -21 -13z"/>
<path d="M2455 4649 c-4 -6 -5 -12 -2 -15 2 -3 7 2 10 11 7 17 1 20 -8 4z"/>
<path d="M2586 4651 c-3 -5 2 -15 12 -22 15 -12 16 -12 5 2 -7 9 -10 19 -6 22
3 4 4 7 0 7 -3 0 -8 -4 -11 -9z"/>
<path d="M2740 4640 c-6 -11 -8 -20 -6 -20 3 0 10 9 16 20 6 11 8 20 6 20 -3
0 -10 -9 -16 -20z"/>
<path d="M3546 4651 c-3 -5 2 -15 12 -22 15 -12 16 -12 5 2 -7 9 -10 19 -6 22
3 4 4 7 0 7 -3 0 -8 -4 -11 -9z"/>
<path d="M3705 4651 c-3 -5 -2 -12 3 -15 5 -3 9 1 9 9 0 17 -3 19 -12 6z"/>
<path d="M3870 4646 l-25 -14 26 1 c14 1 26 8 26 15 0 6 -1 12 -1 12 -1 -1
-12 -7 -26 -14z"/>
<path d="M3929 4643 c-13 -16 -12 -17 4 -4 9 7 17 15 17 17 0 8 -8 3 -21 -13z"/>
<path d="M4055 4649 c-4 -6 -5 -12 -2 -15 2 -3 7 2 10 11 7 17 1 20 -8 4z"/>
<path d="M4190 4646 l-25 -14 26 1 c14 1 26 8 26 15 0 6 -1 12 -1 12 -1 -1
-12 -7 -26 -14z"/>
<path d="M4249 4643 c-13 -16 -12 -17 4 -4 9 7 17 15 17 17 0 8 -8 3 -21 -13z"/>
<path d="M4375 4649 c-4 -6 -5 -12 -2 -15 2 -3 7 2 10 11 7 17 1 20 -8 4z"/>
<path d="M5001 4651 c-8 -5 -9 -11 -3 -15 5 -3 12 1 16 9 6 17 6 18 -13 6z"/>
<path d="M20 4640 c-9 -6 -10 -10 -3 -10 6 0 15 5 18 10 8 12 4 12 -15 0z"/>
<path d="M167 4639 c7 -7 15 -10 18 -7 3 3 -2 9 -12 12 -14 6 -15 5 -6 -5z"/>
<path d="M340 4640 c-9 -6 -10 -10 -3 -10 6 0 15 5 18 10 8 12 4 12 -15 0z"/>
<path d="M487 4639 c7 -7 15 -10 18 -7 3 3 -2 9 -12 12 -14 6 -15 5 -6 -5z"/>
<path d="M1010 4639 c0 -5 5 -7 10 -4 6 3 10 8 10 11 0 2 -4 4 -10 4 -5 0 -10
-5 -10 -11z"/>
<path d="M1465 4640 c-2 -3 9 -6 25 -5 15 0 26 3 24 7 -5 8 -44 6 -49 -2z"/>
<path d="M1535 4640 c3 -5 8 -10 11 -10 2 0 4 5 4 10 0 6 -5 10 -11 10 -5 0
-7 -4 -4 -10z"/>
<path d="M2035 4640 c-3 -6 1 -7 9 -4 18 7 21 14 7 14 -6 0 -13 -4 -16 -10z"/>
<path d="M2160 4639 c0 -5 5 -7 10 -4 6 3 10 8 10 11 0 2 -4 4 -10 4 -5 0 -10
-5 -10 -11z"/>
<path d="M2355 4640 c-3 -6 1 -7 9 -4 18 7 21 14 7 14 -6 0 -13 -4 -16 -10z"/>
<path d="M2480 4639 c0 -5 5 -7 10 -4 6 3 10 8 10 11 0 2 -4 4 -10 4 -5 0 -10
-5 -10 -11z"/>
<path d="M2779 4633 c-13 -16 -12 -17 4 -4 9 7 17 15 17 17 0 8 -8 3 -21 -13z"/>
<path d="M2930 4639 c0 -5 5 -7 10 -4 6 3 10 8 10 11 0 2 -4 4 -10 4 -5 0 -10
-5 -10 -11z"/>
<path d="M2972 4645 c3 -3 16 -8 28 -10 12 -2 20 -1 16 2 -4 4 -16 8 -28 10
-12 2 -19 1 -16 -2z"/>
<path d="M3225 4640 c3 -5 8 -10 11 -10 2 0 4 5 4 10 0 6 -5 10 -11 10 -5 0
-7 -4 -4 -10z"/>
<path d="M3385 4640 c-2 -3 9 -6 25 -5 15 0 26 3 24 7 -5 8 -44 6 -49 -2z"/>
<path d="M3450 4639 c0 -5 5 -7 10 -4 6 3 10 8 10 11 0 2 -4 4 -10 4 -5 0 -10
-5 -10 -11z"/>
<path d="M3955 4640 c-3 -6 1 -7 9 -4 18 7 21 14 7 14 -6 0 -13 -4 -16 -10z"/>
<path d="M4080 4639 c0 -5 5 -7 10 -4 6 3 10 8 10 11 0 2 -4 4 -10 4 -5 0 -10
-5 -10 -11z"/>
<path d="M4275 4640 c-3 -6 1 -7 9 -4 18 7 21 14 7 14 -6 0 -13 -4 -16 -10z"/>
<path d="M4400 4639 c0 -5 5 -7 10 -4 6 3 10 8 10 11 0 2 -4 4 -10 4 -5 0 -10
-5 -10 -11z"/>
<path d="M4500 4646 c0 -2 8 -10 18 -17 15 -13 16 -12 3 4 -13 16 -21 21 -21
13z"/>
<path d="M4850 4639 c0 -5 5 -7 10 -4 6 3 10 8 10 11 0 2 -4 4 -10 4 -5 0 -10
-5 -10 -11z"/>
<path d="M5076 4634 c-5 -14 -4 -15 9 -4 17 14 19 20 6 20 -5 0 -12 -7 -15
-16z"/>
<path d="M2503 4280 c-140 -29 -244 -153 -244 -292 0 -72 20 -137 57 -185 16
-21 22 -38 17 -47 -34 -57 -650 -863 -693 -906 -62 -63 -149 -112 -235 -135
-77 -20 -207 -19 -276 1 -127 38 -162 64 -404 305 l-230 228 26 28 c88 96 106
224 49 339 -46 93 -116 146 -215 165 -194 36 -367 -122 -353 -321 8 -111 83
-219 175 -252 21 -8 33 -19 33 -30 0 -37 322 -1304 339 -1333 9 -16 32 -38 51
-50 35 -20 47 -20 1010 -20 536 0 1405 2 1930 5 895 5 957 6 988 23 18 10 41
32 52 49 10 17 92 327 182 689 130 526 167 660 180 664 10 4 39 23 65 44 136
107 151 316 31 440 -80 84 -216 119 -321 82 -110 -38 -198 -161 -198 -279 -1
-90 22 -152 80 -215 l26 -28 -235 -233 c-203 -201 -244 -238 -300 -264 -85
-40 -137 -51 -235 -52 -151 0 -278 52 -378 155 -32 33 -201 253 -377 489
l-318 429 29 40 c36 49 51 102 50 179 -1 179 -180 323 -358 288z"/>
<path d="M650 1452 c-19 -9 -45 -32 -57 -51 -22 -33 -23 -42 -23 -246 0 -203
1 -213 23 -245 12 -19 36 -42 53 -52 30 -17 116 -18 1924 -18 1785 0 1895 1
1923 17 16 10 39 31 51 46 20 26 21 43 24 235 3 199 2 209 -20 251 -14 28 -36
51 -58 63 -33 17 -115 18 -1920 18 -1775 0 -1887 -1 -1920 -18z"/>
</g>
</svg>
